<svg xmlns="http://www.w3.org/2000/svg" width="512" height="512" viewBox="0 0 512 512" version="1.1">
	<path d="M 268.010 6.262 C 262.475 8.110, 256.489 14.795, 255.069 20.714 C 253.010 29.294, 256.918 38.539, 264.278 42.500 C 266.322 43.600, 267.996 44.898, 267.997 45.384 C 268.002 46.920, 260.813 66.442, 259.761 67.750 C 259.153 68.505, 256.325 69, 252.621 69 C 245.175 69, 222.836 71.568, 218.007 72.979 C 216.085 73.541, 214.011 74, 213.396 74 C 212.782 74, 206.770 66.057, 200.036 56.348 C 188.966 40.388, 187.970 38.599, 189.646 37.683 C 190.666 37.126, 192.945 35.156, 194.710 33.306 C 204.040 23.529, 196.704 7, 183.035 7 C 177.504 7, 145.463 19.261, 141.661 22.833 C 133.997 30.032, 134.098 40.698, 141.893 47.257 C 146.906 51.474, 153.378 51.883, 162.070 48.530 C 163.409 48.013, 164.106 51.026, 166.821 69.056 C 168.570 80.679, 169.797 90.519, 169.547 90.923 C 169.298 91.327, 166.260 93.389, 162.797 95.506 C 152.485 101.806, 142.102 109.931, 131.820 119.745 C 124.430 126.798, 121.704 128.826, 120.318 128.303 C 119.318 127.925, 113.100 125.236, 106.500 122.326 C 96.958 118.120, 94.575 116.674, 94.866 115.268 C 95.068 114.296, 95.270 111.185, 95.315 108.355 C 95.381 104.255, 94.862 102.507, 92.756 99.746 C 87.575 92.954, 78.309 91.169, 72.087 95.763 C 69.292 97.827, 59.620 109.755, 54.911 116.946 C 44.457 132.910, 64.604 150.242, 78.020 136.826 C 81.073 133.773, 81.186 133.745, 82.899 135.600 C 87.332 140.404, 101 156.863, 101 157.399 C 101 157.729, 98.333 163.511, 95.074 170.249 C 88.388 184.073, 83.038 199.433, 80.534 212 C 79.603 216.675, 78.525 222.061, 78.140 223.970 L 77.439 227.440 57.470 232.176 C 46.486 234.782, 36.938 236.933, 36.250 236.957 C 35.563 236.980, 35 236.027, 35 234.838 C 35 231.082, 30.416 224.602, 26.005 222.123 C 17.392 217.282, 6.105 221.152, 1.913 230.384 C 0.302 233.933, 0.041 237.106, 0.022 253.412 C 0.001 271.595, 0.093 272.482, 2.402 276.423 C 3.744 278.713, 6.562 281.510, 8.788 282.761 C 20.597 289.398, 35 280.718, 35 266.965 C 35 263.538, 35.287 262.947, 36.750 263.363 C 37.713 263.636, 46.600 265.717, 56.500 267.986 C 66.400 270.255, 75.244 272.328, 76.154 272.593 C 77.315 272.930, 78.148 275.074, 78.951 279.787 C 81.786 296.423, 89.947 321.030, 96.558 332.876 C 97.901 335.283, 99 338.003, 99 338.920 C 99 340.647, 74.457 369, 72.962 369 C 72.498 369, 71.836 368.544, 71.491 367.986 C 71.146 367.428, 69.015 366.028, 66.756 364.875 C 55.963 359.369, 42.111 368.149, 42.022 380.554 C 41.993 384.524, 45.709 391.768, 52.254 400.500 C 60.324 411.269, 68.403 414.386, 76.945 410.028 C 84.313 406.269, 88.083 398.307, 86.132 390.623 C 85.566 388.391, 85.192 386.515, 85.301 386.455 C 87.793 385.083, 120.905 371.986, 121.865 371.992 C 122.616 371.996, 126.994 375.563, 131.595 379.919 C 141.884 389.657, 154.426 399.149, 166.271 406.161 C 171.206 409.082, 175.457 412.027, 175.717 412.706 C 176.151 413.836, 172.506 450.727, 171.478 455.605 C 171.083 457.481, 170.502 457.659, 166.134 457.239 C 147.597 455.458, 136.940 476.183, 149.367 489.845 C 152.372 493.149, 155.263 494.490, 173.700 501.131 C 194.051 508.462, 198.281 508.578, 203.207 501.940 C 206.213 497.890, 208.325 485.931, 206.948 480.756 C 205.511 475.353, 201.841 470.484, 197.520 468.246 L 194.148 466.500 206.324 447.289 C 213.021 436.723, 218.971 427.885, 219.548 427.648 C 220.124 427.412, 224.174 427.913, 228.548 428.762 C 241.417 431.259, 273.322 430.862, 288.500 428.015 C 295.100 426.777, 301.631 425.556, 303.014 425.303 C 305.285 424.887, 306.714 426.500, 317.764 441.955 C 324.494 451.367, 329.994 459.390, 329.988 459.784 C 329.981 460.178, 328.477 461.470, 326.647 462.655 C 320.064 466.916, 317.870 477.575, 322.250 484.010 C 328.851 493.709, 333.731 493.802, 356.500 484.662 C 366.247 480.749, 374.726 476.699, 376.373 475.169 C 382.073 469.874, 383.439 462.741, 380.031 456.061 C 376.253 448.656, 367.702 446.077, 358.126 449.456 C 355.857 450.256, 353.988 450.594, 353.972 450.206 C 353.957 449.818, 352.440 440.275, 350.600 429 C 348.761 417.725, 347.447 408.050, 347.682 407.500 C 347.916 406.950, 351.317 404.498, 355.240 402.050 C 364.363 396.358, 375.216 387.725, 385.001 378.377 C 389.248 374.320, 393.347 371.006, 394.111 371.014 C 394.875 371.021, 401.279 373.609, 408.342 376.764 L 421.183 382.500 421.342 389.075 C 421.465 394.213, 422.027 396.419, 423.910 399.166 C 431.428 410.130, 445.425 410.771, 454.818 400.581 C 462.475 392.275, 464.501 388.295, 464.494 381.573 C 464.487 374.248, 461.798 369.218, 455.750 365.216 C 450.415 361.685, 442.404 361.500, 436.196 364.762 L 431.891 367.024 429.196 363.802 C 427.713 362.030, 423.462 356.981, 419.750 352.582 C 416.038 348.184, 413 344.199, 413 343.728 C 413 343.256, 415.198 338.737, 417.885 333.685 C 420.572 328.633, 424.428 320.150, 426.456 314.834 L 430.141 305.168 434.821 304.618 C 437.394 304.315, 447.262 303.776, 456.750 303.419 L 474 302.771 474 306.999 C 474 316.329, 481.874 323.651, 490.968 322.777 C 496.337 322.261, 501.324 319.212, 503.407 315.171 C 504.165 313.702, 506.475 304.400, 508.542 294.500 C 512.149 277.220, 512.306 275.640, 512.478 255 L 512.656 233.500 512.045 252.500 C 511.709 262.950, 511.337 270.747, 511.217 269.827 C 510.871 267.158, 505.885 261.850, 502.329 260.364 C 492.916 256.431, 482.162 262.032, 480.412 271.779 C 480.044 273.826, 479.464 276.027, 479.122 276.672 C 478.453 277.932, 440.178 261.806, 438.722 259.651 C 438.294 259.018, 438.198 256.658, 438.510 254.407 C 439.701 245.789, 437.048 223.212, 432.277 201.365 C 431.887 199.580, 433.623 197.999, 442.840 191.741 L 453.869 184.253 456.684 187.250 C 461.895 192.795, 471.080 194.665, 478.298 191.649 C 485.459 188.657, 490.918 178.704, 489.511 171.205 C 489.152 169.293, 487.067 163.091, 484.878 157.423 C 479.491 143.476, 474.516 139, 464.403 139 C 458.479 139, 454.147 140.930, 450.340 145.265 C 446.305 149.861, 444.627 155.025, 445.429 160.377 L 446.063 164.604 433.282 166.325 C 426.252 167.271, 420.218 168.035, 419.874 168.023 C 419.530 168.010, 416.972 164.063, 414.189 159.250 C 408.233 148.949, 399.551 136.991, 391.655 128.212 C 388.545 124.754, 386 121.739, 386 121.512 C 386 121.284, 388.755 115.114, 392.123 107.799 C 395.491 100.485, 399.508 91.719, 401.050 88.320 L 403.853 82.141 407.677 84.136 C 417.427 89.226, 429.480 82.790, 430.715 71.834 C 431.606 63.928, 429.692 61.359, 412.951 47.994 C 404.588 41.317, 396.565 35.397, 395.122 34.839 C 391.390 33.395, 383.322 34.379, 380.176 36.662 C 378.704 37.730, 376.446 40.705, 375.157 43.274 C 371.693 50.180, 372.757 55.008, 379.158 61.429 C 383.076 65.359, 383.811 66.595, 382.786 67.531 C 376.592 73.187, 351.027 93, 349.923 93 C 349.146 93, 343.558 90.567, 337.505 87.593 C 325.418 81.654, 313.414 77.192, 302.234 74.483 C 294.027 72.494, 294.603 73.396, 293.010 60.026 C 291.541 47.703, 291.652 46.245, 294.111 45.465 C 295.271 45.096, 297.975 43.211, 300.119 41.274 C 309.464 32.831, 308.213 17.456, 297.590 10.213 C 292.047 6.433, 274.513 4.091, 268.010 6.262 M 0.420 253.500 C 0.419 264.500, 0.565 269.136, 0.745 263.803 C 0.924 258.470, 0.925 249.470, 0.746 243.803 C 0.568 238.136, 0.421 242.500, 0.420 253.500" stroke="none" fill="black" fill-rule="evenodd"/>
</svg>